# File created by Blade
# Date/Time:  Tue Jan 27 18:50:13 2015
#---------------------------------------------------------
:version 1.10
:name HOM
:units
  mass 1.0
  length 1.000000
  angle deg
:documentation
     Acclaim Skeleton File
:root
   axis xyz
   order TX TY TZ RX RY RZ
   position 0.000000 0.000000 0.000000
   orientation 0 0 0
:bonedata
   begin
      id 1
      name Spine_dum
      direction 0.000000 1.000000 0.000000
      length 5.195262
      axis 0.0 0.0 0.0 xyz
   end
   begin
      id 2
      name LeftUpLeg_dum
      direction 1.000000 0.000000 0.000000
      length 3.351363
      axis 0.0 0.0 0.0 xyz
   end
   begin
      id 3
      name RightUpLeg_dum
      direction -1.000000 0.000000 0.000000
      length 3.351363
      axis 0.0 0.0 0.0 xyz
   end
   begin
      id 4
      name Spine
      direction 0.000000 1.000000 0.000000
      length 0.000000
      axis 0.0 0.0 0.0 xyz
      dof rx ry rz
   end
   begin
      id 5
      name Spine_dum1
      direction 0.000000 1.000000 0.000000
      length 15.653875
      axis 0.0 0.0 0.0 xyz
   end
   begin
      id 6
      name Spine_dum2
      direction 0.000000 1.000000 0.000000
      length 10.329768
      axis 0.0 0.0 0.0 xyz
   end
   begin
      id 7
      name Spine_dum3
      direction 0.000000 1.000000 0.000000
      length 10.329768
      axis 0.0 0.0 0.0 xyz
   end
   begin
      id 8
      name Head
      direction 0.000000 1.000000 0.000000
      length 4.527550
      axis 0.0 0.0 0.0 xyz
      dof rx ry rz
   end
   begin
      id 9
      name LeftShoulder
      direction 1.000000 0.000000 0.000000
      length 6.996006
      axis 0.0 0.0 -90.0 xyz
      dof rx ry rz
   end
   begin
      id 10
      name LeftArm
      direction 1.000000 0.000000 0.000000
      length 10.209302
      axis 0.0 0.0 -90.0 xyz
      dof rx ry rz
   end
   begin
      id 11
      name LeftForeArm
      direction 1.000000 0.000000 0.000000
      length 8.563163
      axis 0.0 0.0 -90.0 xyz
      dof ry rz rx
   end
   begin
      id 12
      name LeftHand
      direction 0.000000 0.000000 0.000000
      length 0.000000
      axis 0.0 0.0 -90.0 xyz
      dof rx ry rz
   end
   begin
      id 13
      name LeftHand_dum1
      direction 0.000000 0.000000 0.000000
      length 0.000000
      axis 0.0 0.0 -90.0 xyz
   end
   begin
      id 14
      name LeftHand_dum2
      direction 1.000000 0.000000 0.000000
      length 3.937000
      axis 0.0 0.0 -90.0 xyz
   end
   begin
      id 15
      name LeftHandThumb1
      direction 0.000000 0.000000 1.000000
      length 3.937000
      axis 0.0 0.0 -90.0 xyz
      dof rx rz ry
   end
   begin
      id 16
      name RightShoulder
      direction -1.000000 0.000000 0.000000
      length 6.996006
      axis 0.0 0.0 90.0 xyz
      dof rx ry rz
   end
   begin
      id 17
      name RightArm
      direction -1.000000 0.000000 0.000000
      length 10.209302
      axis 0.0 0.0 90.0 xyz
      dof rx ry rz
   end
   begin
      id 18
      name RightForeArm
      direction -1.000000 0.000000 0.000000
      length 8.563163
      axis 0.0 0.0 90.0 xyz
      dof ry rz rx
   end
   begin
      id 19
      name RightHand
      direction 0.000000 0.000000 0.000000
      length 0.000000
      axis 0.0 0.0 90.0 xyz
      dof rx ry rz
   end
   begin
      id 20
      name RightHand_dum1
      direction 0.000000 0.000000 0.000000
      length 0.000000
      axis 0.0 0.0 90.0 xyz
   end
   begin
      id 21
      name RightHand_dum2
      direction -1.000000 0.000000 0.000000
      length 3.937000
      axis 0.0 0.0 90.0 xyz
   end
   begin
      id 22
      name RightHandThumb1
      direction 0.000000 0.000000 1.000000
      length 3.937000
      axis 0.0 0.0 90.0 xyz
      dof rx rz ry
   end
   begin
      id 23
      name LeftUpLeg
      direction 0.000000 -1.000000 0.000000
      length 16.346831
      axis 0.0 0.0 0.0 xyz
      dof rx ry rz
   end
   begin
      id 24
      name LeftLeg
      direction 0.000000 -1.000000 0.000000
      length 13.959795
      axis 0.0 0.0 0.0 xyz
      dof rx ry rz
   end
   begin
      id 25
      name LeftFoot
      direction 0.000000 -0.258819 0.965926
      length 5.165550
      axis 15.0 0.0 0.0 xyz
      dof rx ry rz
   end
   begin
      id 26
      name LeftToeBase
      direction 0.000000 0.000000 1.000000
      length 2.952750
      axis 0.0 0.0 0.0 xyz
      dof rx ry rz
   end
   begin
      id 27
      name RightUpLeg
      direction 0.000000 -1.000000 0.000000
      length 16.346831
      axis 0.0 0.0 0.0 xyz
      dof rx ry rz
   end
   begin
      id 28
      name RightLeg
      direction 0.000000 -1.000000 0.000000
      length 13.959795
      axis 0.0 0.0 0.0 xyz
      dof rx ry rz
   end
   begin
      id 29
      name RightFoot
      direction 0.000000 -0.258819 0.965926
      length 5.165550
      axis 15.0 0.0 0.0 xyz
      dof rx ry rz
   end
   begin
      id 30
      name RightToeBase
      direction 0.000000 0.000000 1.000000
      length 2.952750
      axis 0.0 0.0 0.0 xyz
      dof rx ry rz
   end
:hierarchy
   begin
      root Spine_dum LeftUpLeg_dum RightUpLeg_dum
      Spine_dum Spine
      LeftUpLeg_dum LeftUpLeg
      RightUpLeg_dum RightUpLeg
      Spine Spine_dum1 Spine_dum2 Spine_dum3
      Spine_dum1 Head
      Spine_dum2 LeftShoulder
      Spine_dum3 RightShoulder
      LeftShoulder LeftArm
      LeftArm LeftForeArm
      LeftForeArm LeftHand
      LeftHand LeftHand_dum1 LeftHand_dum2
      LeftHand_dum1 LeftHandThumb1
      RightShoulder RightArm
      RightArm RightForeArm
      RightForeArm RightHand
      RightHand RightHand_dum1 RightHand_dum2
      RightHand_dum1 RightHandThumb1
      LeftUpLeg LeftLeg
      LeftLeg LeftFoot
      LeftFoot LeftToeBase
      RightUpLeg RightLeg
      RightLeg RightFoot
      RightFoot RightToeBase
   end

# File created by Blade
# Date/Time:  Tue Jan 27 18:50:05 2015
# Frame Rate: 120.000 fps
#------------------------------------------------------
:FULLY-SPECIFIED
:DEGREES
1
root -6.362694 31.793290 -6.182935 4.042018 6.721435 3.207640
Spine -5.224535 -7.297591 -4.541628
Head 15.635749 4.990586 3.978258
LeftShoulder -17.697329 16.322663 18.735038
LeftArm 25.902529 -28.123498 -41.533711
LeftForeArm -33.500027 -0.000000 9.987599
LeftHand -8.364579 -0.000000 6.386738
LeftHandThumb1 -26.253704 0.000000 33.147579
RightShoulder -13.026193 3.653504 -32.978890
RightArm 20.041855 8.298669 35.281646
RightForeArm -23.464652 -0.000000 5.904392
RightHand -13.492795 0.000000 17.900665
RightHandThumb1 -24.326973 -0.000000 -32.862282
LeftUpLeg -0.574495 -2.469740 -1.820971
LeftLeg 1.921770 -0.000000 -0.000000
LeftFoot -17.983242 15.395011 -21.945421
LeftToeBase 10.526944 -0.000000 -0.000000
RightUpLeg 3.859025 -4.335000 -2.342354
RightLeg -3.486431 -0.000000 0.000000
RightFoot -16.054230 -15.101894 8.617549
RightToeBase 4.269578 -0.000000 -0.000000
2
root -6.366370 31.793629 -6.184410 4.053450 6.717076 3.205831
Spine -5.223802 -7.285844 -4.545570
Head 15.692799 4.967796 3.988494
LeftShoulder -17.698309 16.304152 18.722881
LeftArm 25.886832 -28.135203 -41.523365
LeftForeArm -33.505807 -0.000000 10.038773
LeftHand -8.387738 -0.000000 6.429290
LeftHandThumb1 -26.253704 0.000000 33.147579
RightShoulder -13.040967 3.610228 -32.983366
RightArm 20.057842 8.385262 35.340355
RightForeArm -23.526963 -0.000000 5.932003
RightHand -13.434691 0.000000 17.742151
RightHandThumb1 -24.326973 -0.000000 -32.862282
LeftUpLeg -0.635169 -2.469962 -1.813666
LeftLeg 2.022379 -0.000000 -0.000000
LeftFoot -18.050278 15.385216 -21.963154
LeftToeBase 10.552072 -0.000000 -0.000000
RightUpLeg 3.841402 -4.344531 -2.333593
RightLeg -3.481328 -0.000000 0.000000
RightFoot -16.052367 -15.084165 8.624618
RightToeBase 4.262529 -0.000000 -0.000000
3
root -6.370354 31.793867 -6.186962 4.068382 6.717039 3.208797
Spine -5.222564 -7.301812 -4.551832
Head 15.745560 4.964689 4.001935
LeftShoulder -17.723429 16.322691 18.704877
LeftArm 25.901745 -28.199288 -41.562074
LeftForeArm -33.497865 0.000000 10.102674
LeftHand -8.396181 -0.000000 6.496639
LeftHandThumb1 -26.253704 0.000000 33.147579
RightShoulder -13.030208 3.616659 -32.967780
RightArm 20.027340 8.307334 35.300867
RightForeArm -23.455788 -0.000000 5.997878
RightHand -13.622438 -0.000000 17.605802
RightHandThumb1 -24.326973 -0.000000 -32.862282
LeftUpLeg -0.714154 -2.478063 -1.809701
LeftLeg 2.152388 -0.000000 -0.000000
LeftFoot -18.105983 15.367215 -21.986267
LeftToeBase 10.508291 -0.000000 -0.000000
RightUpLeg 3.815567 -4.346882 -2.329520
RightLeg -3.468660 -0.000000 0.000000
RightFoot -16.051588 -15.084166 8.611421
RightToeBase 4.211886 -0.000000 -0.000000
4
root -6.373364 31.794930 -6.190971 4.100637 6.720184 3.219402
Spine -5.236708 -7.326701 -4.560457
Head 15.810419 4.967291 4.013668
LeftShoulder -17.742721 16.327546 18.678811
LeftArm 25.869712 -28.232707 -41.562333
LeftForeArm -33.517594 -0.000000 10.198878
LeftHand -8.415772 -0.000000 6.590150
LeftHandThumb1 -26.253704 0.000000 33.147579
RightShoulder -13.024660 3.615912 -32.956623
RightArm 20.022028 8.308969 35.316797
RightForeArm -23.447570 -0.000000 6.054749
RightHand -13.727529 -0.000000 17.577080
RightHandThumb1 -24.326973 -0.000000 -32.862282
LeftUpLeg -0.828826 -2.517834 -1.815551
LeftLeg 2.315747 -0.000000 -0.000000
LeftFoot -18.203294 15.371419 -22.034562
LeftToeBase 10.576029 -0.000000 -0.000000
RightUpLeg 3.769218 -4.373730 -2.335780
RightLeg -3.449088 -0.000000 0.000000
RightFoot -16.060246 -15.039485 8.624835
RightToeBase 4.266171 -0.000000 -0.000000
5
root -6.378695 31.795780 -6.195384 4.132070 6.721091 3.218574
Spine -5.239692 -7.330862 -4.574434
Head 15.833252 4.917227 4.130359
LeftShoulder -17.779030 16.346891 18.658763
LeftArm 25.906791 -28.288609 -41.600384
LeftForeArm -33.482826 -0.000000 10.285357
LeftHand -8.401122 -0.000000 6.678322
LeftHandThumb1 -26.253704 0.000000 33.147579
RightShoulder -13.047099 3.575127 -32.927137
RightArm 20.033011 8.384768 35.366843
RightForeArm -23.486507 -0.000000 6.118193
RightHand -13.671313 -0.000000 17.513961
RightHandThumb1 -24.326973 -0.000000 -32.862282
LeftUpLeg -0.971761 -2.508474 -1.806383
LeftLeg 2.537781 -0.000000 -0.000000
LeftFoot -18.308329 15.313633 -22.097548
LeftToeBase 10.612292 -0.000000 -0.000000
RightUpLeg 3.732458 -4.338312 -2.324573
RightLeg -3.456041 -0.000000 0.000000
RightFoot -16.046281 -15.061290 8.628817
RightToeBase 4.257311 -0.000000 -0.000000
6
root -6.381692 31.796737 -6.198924 4.156936 6.720515 3.226282
Spine -5.235242 -7.333579 -4.582282
Head 15.852251 4.899939 4.128305
LeftShoulder -17.798926 16.324795 18.639647
LeftArm 25.883183 -28.340589 -41.633120
LeftForeArm -33.414701 -0.000000 10.410968
LeftHand -8.438909 -0.000000 6.749348
LeftHandThumb1 -26.253704 0.000000 33.147579
RightShoulder -13.070384 3.569358 -32.922609
RightArm 20.025740 8.367512 35.401725
RightForeArm -23.454822 -0.000000 6.178000
RightHand -13.697596 -0.000000 17.519959
RightHandThumb1 -24.326973 -0.000000 -32.862282
LeftUpLeg -1.102474 -2.522415 -1.811512
LeftLeg 2.754748 -0.000000 -0.000000
LeftFoot -18.403342 15.322135 -22.084784
LeftToeBase 10.607721 -0.000000 -0.000000
RightUpLeg 3.705777 -4.312331 -2.331124
RightLeg -3.462819 -0.000000 0.000000
RightFoot -16.039487 -15.052285 8.640974
RightToeBase 4.247266 -0.000000 -0.000000
7
root -6.384804 31.797957 -6.203523 4.197073 6.719769 3.241067
Spine -5.250063 -7.344638 -4.600849
Head 15.888285 4.894443 4.131548
LeftShoulder -17.819519 16.323662 18.625050
LeftArm 25.860263 -28.385501 -41.664486
LeftForeArm -33.385392 -0.000000 10.536879
LeftHand -8.432388 -0.000000 6.825046
LeftHandThumb1 -26.253704 0.000000 33.147579
RightShoulder -13.074043 3.535011 -32.907851
RightArm 20.009791 8.400030 35.463951
RightForeArm -23.459538 -0.000000 6.255859
RightHand -13.684683 0.000000 17.522639
RightHandThumb1 -24.326973 -0.000000 -32.862282
LeftUpLeg -1.264340 -2.516858 -1.822992
LeftLeg 3.001563 -0.000000 -0.000000
LeftFoot -18.501805 15.284242 -22.100998
LeftToeBase 10.568870 -0.000000 -0.000000
RightUpLeg 3.662415 -4.304875 -2.347951
RightLeg -3.466779 -0.000000 0.000000
RightFoot -16.032733 -15.004089 8.655252
RightToeBase 4.322903 -0.000000 -0.000000
8
root -6.388092 31.799300 -6.209587 4.248364 6.719269 3.247650
Spine -5.271134 -7.357109 -4.602414
Head 15.904111 4.920218 4.034304
LeftShoulder -17.839482 16.330313 18.596317
LeftArm 25.824402 -28.472629 -41.714014
LeftForeArm -33.336798 -0.000000 10.716480
LeftHand -8.412431 -0.000000 6.920034
LeftHandThumb1 -26.253704 0.000000 33.147579
RightShoulder -13.076244 3.496731 -32.892703
RightArm 19.996983 8.401815 35.514884
RightForeArm -23.487207 -0.000000 6.314187
RightHand -13.643149 -0.000000 17.267208
RightHandThumb1 -24.326973 -0.000000 -32.862282
LeftUpLeg -1.450949 -2.576187 -1.826840
LeftLeg 3.272086 -0.000000 -0.000000
LeftFoot -18.623488 15.323189 -22.083413
LeftToeBase 10.499607 -0.000000 -0.000000
RightUpLeg 3.605800 -4.269652 -2.352358
RightLeg -3.476652 -0.000000 0.000000
RightFoot -16.025745 -14.996095 8.700934
RightToeBase 4.337714 -0.000000 -0.000000
9
root -6.390899 31.801295 -6.215922 4.302708 6.719071 3.260788
Spine -5.288156 -7.373374 -4.611610
Head 15.889602 4.936569 4.013922
LeftShoulder -17.866640 16.346709 18.566688
LeftArm 25.792231 -28.576676 -41.781324
LeftForeArm -33.241975 -0.000000 10.917684
LeftHand -8.406286 -0.000000 7.019075
LeftHandThumb1 -26.253704 0.000000 33.147579
RightShoulder -13.069433 3.461371 -32.865627
RightArm 19.965246 8.371796 35.552440
RightForeArm -23.437550 -0.000000 6.402800
RightHand -13.766861 0.000000 17.167155
RightHandThumb1 -24.326973 -0.000000 -32.862282
LeftUpLeg -1.661867 -2.696551 -1.839588
LeftLeg 3.590503 -0.000000 -0.000000
LeftFoot -18.794084 15.397632 -22.159472
LeftToeBase 10.452385 -0.000000 -0.000000
RightUpLeg 3.556861 -4.217110 -2.365240
RightLeg -3.506860 -0.000000 0.000000
RightFoot -16.018415 -14.990562 8.793171
RightToeBase 4.292184 -0.000000 -0.000000
10
root -6.392800 31.803512 -6.223146 4.369144 6.713921 3.273153
Spine -5.316218 -7.376160 -4.620805
Head 15.854333 4.930325 3.978137
LeftShoulder -17.896469 16.335538 18.546634
LeftArm 25.755274 -28.677169 -41.866421
LeftForeArm -33.133486 -0.000000 11.143905
LeftHand -8.395149 0.000000 7.121521
LeftHandThumb1 -26.253704 0.000000 33.147579
RightShoulder -13.083104 3.504541 -32.831832
RightArm 19.888962 8.269212 35.565491
RightForeArm -23.373615 -0.000000 6.503082
RightHand -13.778440 -0.000000 17.090927
RightHandThumb1 -24.326973 -0.000000 -32.862282
LeftUpLeg -1.904912 -2.725446 -1.855457
LeftLeg 3.956426 -0.000000 -0.000000
LeftFoot -18.945146 15.303234 -22.394445
LeftToeBase 10.185574 -0.000000 -0.000000
RightUpLeg 3.493627 -4.167373 -2.379925
RightLeg -3.536880 -0.000000 0.000000
RightFoot -15.985076 -14.991177 8.826904
RightToeBase 4.279658 -0.000000 -0.000000
11
root -6.395416 31.805993 -6.232091 4.451339 6.714054 3.281805
Spine -5.346302 -7.378621 -4.634858
Head 15.775228 4.887209 4.044284
LeftShoulder -17.907659 16.255379 18.578295
LeftArm 25.638953 -28.744498 -41.957927
LeftForeArm -33.030653 0.000000 11.416246
LeftHand -8.332569 -0.000000 7.141618
LeftHandThumb1 -26.253704 0.000000 33.147579
RightShoulder -13.106743 3.449631 -32.783419
RightArm 19.863854 8.284593 35.655181
RightForeArm -23.452616 -0.000000 6.621516
RightHand -13.857279 -0.000000 17.051914
RightHandThumb1 -24.326973 -0.000000 -32.862282
LeftUpLeg -2.196224 -2.749963 -1.863226
LeftLeg 4.364702 -0.000000 -0.000000
LeftFoot -19.087414 15.389515 -22.179418
LeftToeBase 10.250862 -0.000000 -0.000000
RightUpLeg 3.412827 -4.107670 -2.386362
RightLeg -3.571019 -0.000000 0.000000
RightFoot -15.960518 -14.996472 8.901250
RightToeBase 4.269061 -0.000000 -0.000000
